#N canvas 495 23 450 300 10;
#X obj 91 101 line~;
#X obj 91 79 pack 0 50;
#X obj 91 53 pow 2;
#X obj 91 29 inlet;
#X obj 91 123 outlet~;
#X obj 152 123 outlet;
#X text 87 5 converts linear 0-1 float into amplitude signal;
#X text 154 48 exponentiate for smooth curve;
#X text 154 78 smoothly transition over 50 ms;
#X connect 0 0 4 0;
#X connect 1 0 0 0;
#X connect 2 0 1 0;
#X connect 2 0 5 0;
#X connect 3 0 2 0;
