#N canvas 720 0 720 855 10;
#N canvas 720 0 360 203 youarehearing 0;
#X obj 11 204 notoname2;
#X obj 29 76 mtof;
#X obj 29 178 dac~;
#X obj 120 44 tgl 15 0 empty empty empty 17 7 0 10 -262144 -1 -1 0
1;
#X obj 134 140 line~;
#X obj 29 156 *~;
#X obj 29 134 osc~ 440;
#X obj 134 118 pack 0 50;
#X obj 29 102 line~ 440 50;
#X obj 29 15 r notename;
#X obj 11 231 outlet;
#X obj 120 22 r onoff;
#X obj 29 48 int;
#X obj 205 21 r vol;
#X floatatom 188 85 5 0 1 0 - - -, f 5;
#X obj 176 61 bng 15 250 50 0 empty empty empty 17 7 0 10 -262144 -1
-1;
#X obj 120 65 moses 1;
#X msg 121 90 0;
#X connect 0 0 10 0;
#X connect 1 0 8 0;
#X connect 3 0 16 0;
#X connect 4 0 5 1;
#X connect 5 0 2 0;
#X connect 5 0 2 1;
#X connect 6 0 5 0;
#X connect 7 0 4 0;
#X connect 8 0 6 0;
#X connect 9 0 12 0;
#X connect 9 0 0 0;
#X connect 11 0 3 0;
#X connect 12 0 1 0;
#X connect 13 0 14 0;
#X connect 14 0 7 0;
#X connect 15 0 14 0;
#X connect 16 0 17 0;
#X connect 16 1 15 0;
#X connect 17 0 7 0;
#X restore 94 116 pd youarehearing;
#X symbolatom 94 144 10 0 0 0 - - -, f 10;
#X obj 92 44 tgl 50 0 onoff onoff SWITCH 7 7 0 10 -262144 -1 -1 0 1
;
#X obj 195 54 hsl 300 30 10 127 0 0 notename notename NOTE\ NAME 3
-8 0 10 -262144 -1 -1 11935 1;
#N canvas 1080 0 360 428 osc-in 0;
#X obj 142 99 oscparse;
#X obj 177 173 outlet;
#X msg 227 31 listen 0;
#X obj 142 77 netreceive -u -b;
#X msg 140 31 listen 5050;
#X obj 142 121 list split 1;
#X obj 96 175 print osc;
#X connect 0 0 5 0;
#X connect 2 0 3 0;
#X connect 3 0 0 0;
#X connect 4 0 3 0;
#X connect 5 1 1 0;
#X connect 5 1 6 0;
#X restore 280 143 pd osc-in;
#N canvas 720 0 360 428 route-osc 0;
#X obj 39 18 inlet;
#X obj 17 89 s onoff;
#X obj 74 141 s notename;
#X obj 39 41 list trim;
#X obj 39 65 route toggle1 fader5 fader1;
#X obj 74 108 * 127;
#X obj 145 90 s vol;
#X obj 10 178 r onoff;
#X obj 10 223 oscformat toggle1;
#X obj 122 291 outlet;
#X obj 122 178 r notename;
#X obj 122 200 / 127;
#X obj 232 178 r vol;
#X obj 232 222 oscformat fader1;
#X obj 122 222 oscformat fader5;
#X connect 0 0 3 0;
#X connect 3 0 4 0;
#X connect 4 0 1 0;
#X connect 4 1 5 0;
#X connect 4 2 6 0;
#X connect 5 0 2 0;
#X connect 7 0 8 0;
#X connect 8 0 9 0;
#X connect 10 0 11 0;
#X connect 11 0 14 0;
#X connect 12 0 13 0;
#X connect 13 0 9 0;
#X connect 14 0 9 0;
#X restore 280 165 pd route-osc;
#N canvas 0 450 360 428 osc-out 0;
#X obj 158 36 inlet;
#X floatatom 225 137 5 0 0 0 - - -, f 5;
#X msg 294 57 connect 192.168.0.19 9000;
#X msg 292 87 disconnect;
#X obj 225 115 netsend 1;
#X obj 158 62 list prepend send;
#X obj 158 84 list trim;
#X obj 44 61 oscparse;
#X obj 44 83 print osc-send;
#X connect 0 0 5 0;
#X connect 0 0 7 0;
#X connect 2 0 4 0;
#X connect 3 0 4 0;
#X connect 4 0 1 0;
#X connect 5 0 6 0;
#X connect 6 0 4 0;
#X connect 7 0 8 0;
#X restore 280 187 pd osc-out;
#X obj 447 114 vsl 50 128 0 1 0 0 vol vol VOLUME 0 -9 0 10 -262144
-1 -1 5102 1;
#X msg 94 176 \; c1 label \$1;
#X obj 54 176 cnv 15 175 60 empty c1 G\$3 20 40 0 100 -262144 -66577
0;
#X connect 0 0 1 0;
#X connect 1 0 8 0;
#X connect 4 0 5 0;
#X connect 5 0 6 0;
#X coords 0 0 1 1 85 60 0;
