#N canvas 1679 23 718 855 10;
#X obj 84 19 tgl 50 0 onoff-out onoff DSP 7 7 0 10 -262144 -1 -1 1
1;
#X obj 195 29 hsl 300 30 10 127 0 0 midinum midinum NOTE\ NAME 3 -8
0 10 -262144 -1 -1 14822 1;
#X obj 445 126 vsl 50 128 0 1 0 0 vol vol VOLUME 0 -9 0 10 -262144
-1 -1 0 1;
#X obj 57 246 cnv 15 263 282 empty c1 G\$4 20 40 0 200 -262144 -66577
0;
#X obj 84 74 tgl 50 0 net-toggle net-toggle NETWORKING 7 7 0 10 -262144
-1 -1 1 1;
#X obj 59 417 cnv 15 263 282 empty c2 +0c 20 40 0 200 -262144 -66577
0;
#N canvas 722 23 718 394 audio 0;
#X obj 28 -50 dac~;
#N canvas 722 462 718 393 fundamental-freq 0;
#X obj 58 155 mtof;
#X obj 58 -35 r notename;
#X obj 136 -35 r octave;
#X obj 58 56 + 24;
#X obj 136 -11 int;
#X obj 136 11 * 12;
#X obj 136 31 t b f;
#X obj 58 0 int;
#X obj 58 132 + 0;
#X text 31 57 8ve;
#X text 35 130 c;
#X obj 197 -35 r dev;
#X obj 197 92 t b f;
#X floatatom 197 62 5 0 0 0 - - -, f 5;
#X obj 281 -32 loadbang;
#X msg 281 -10 0;
#X obj 281 12 s dev;
#X obj 58 105 r midinum;
#X obj 58 82 s midinum;
#X obj 206 35 s dev-out;
#X text 134 -52 0-???;
#X text 196 -53 0-1;
#X text 56 -53 0-11;
#X obj 58 212 outlet;
#X text 279 -50 start with dev = 0;
#X connect 0 0 23 0;
#X connect 1 0 7 0;
#X connect 2 0 4 0;
#X connect 3 0 18 0;
#X connect 4 0 5 0;
#X connect 5 0 6 0;
#X connect 6 0 3 0;
#X connect 6 1 3 1;
#X connect 7 0 3 0;
#X connect 8 0 0 0;
#X connect 11 0 13 0;
#X connect 11 0 19 0;
#X connect 12 0 8 0;
#X connect 12 1 8 1;
#X connect 13 0 12 0;
#X connect 14 0 15 0;
#X connect 15 0 16 0;
#X connect 17 0 8 0;
#X restore 28 -217 pd fundamental-freq;
#N canvas 722 461 718 394 audio-signal 0;
#X obj 46 154 inlet~;
#X obj 47 469 outlet~;
#X obj 200 31 r partials;
#X obj 199 157 route 1 2 3 4 5 6 7 8 9 10 11;
#X obj 200 58 list split 1;
#X obj 200 113 pack f f;
#X text 145 11 symbol2list because address is a symbol :/;
#X obj 97 202 partial~ 1;
#X obj 105 222 partial~ 2;
#X obj 116 241 partial~ 3;
#X obj 177 201 partial~ 4;
#X obj 185 221 partial~ 5;
#X obj 196 240 partial~ 6;
#X obj 256 199 partial~ 7;
#X obj 264 219 partial~ 8;
#X obj 275 238 partial~ 9;
#X obj 345 200 partial~ 10;
#X obj 353 220 partial~ 11;
#X obj 200 82 zexy/symbol2list;
#X text 76 355 divide by sum of all component amplitudes to scale to
1;
#X obj 153 444 tgl 15 0 empty empty empty 17 7 0 10 -262144 -1 -1 0
1;
#X obj 153 464 metro 200;
#X obj 153 486 snapshot~;
#X obj 153 508 abs;
#X floatatom 153 530 5 0 0 0 - - -, f 5;
#X obj 204 530 moses 1;
#X obj 243 555 bng 145 250 50 0 empty empty empty 17 7 0 10 -262144
-1 -1;
#X obj 47 355 /~;
#X text 190 336 + small amount to avoid divide by 0;
#X obj 129 337 +~ 0.01;
#X connect 0 0 7 0;
#X connect 0 0 8 0;
#X connect 0 0 9 0;
#X connect 0 0 10 0;
#X connect 0 0 17 0;
#X connect 0 0 16 0;
#X connect 0 0 15 0;
#X connect 0 0 14 0;
#X connect 0 0 13 0;
#X connect 0 0 12 0;
#X connect 0 0 11 0;
#X connect 2 0 4 0;
#X connect 3 0 7 1;
#X connect 3 1 8 1;
#X connect 3 2 9 1;
#X connect 3 3 10 1;
#X connect 3 4 11 1;
#X connect 3 5 12 1;
#X connect 3 6 13 1;
#X connect 3 7 14 1;
#X connect 3 8 15 1;
#X connect 3 9 16 1;
#X connect 3 10 17 1;
#X connect 4 0 18 0;
#X connect 4 1 5 1;
#X connect 5 0 3 0;
#X connect 7 0 27 0;
#X connect 7 1 29 0;
#X connect 8 0 27 0;
#X connect 8 1 29 0;
#X connect 9 0 27 0;
#X connect 9 1 29 0;
#X connect 10 0 27 0;
#X connect 10 1 29 0;
#X connect 11 0 27 0;
#X connect 11 1 29 0;
#X connect 12 0 27 0;
#X connect 12 1 29 0;
#X connect 13 0 27 0;
#X connect 13 1 29 0;
#X connect 14 0 27 0;
#X connect 14 1 29 0;
#X connect 15 0 27 0;
#X connect 15 1 29 0;
#X connect 16 0 27 0;
#X connect 16 1 29 0;
#X connect 17 0 27 0;
#X connect 17 1 29 0;
#X connect 18 0 5 0;
#X connect 20 0 21 0;
#X connect 21 0 22 0;
#X connect 22 0 23 0;
#X connect 23 0 24 0;
#X connect 23 0 25 0;
#X connect 25 1 26 0;
#X connect 27 0 1 0;
#X connect 27 0 22 0;
#X connect 29 0 27 1;
#X restore 28 -153 pd audio-signal;
#N canvas 210 72 450 300 amplitude 0;
#X obj 21 35 inlet~;
#X obj 21 213 *~;
#X obj 21 235 outlet~;
#X obj 273 60 tgl 15 0 empty empty empty 17 7 0 10 -262144 -1 -1 1
1;
#X obj 128 35 r vol;
#X msg 281 190 \; pd dsp \$1;
#X text 127 19 VOLUME;
#X text 260 14 DSP TOGGLE;
#X obj 273 87 moses 1;
#X msg 239 148 0;
#X obj 239 126 delay 500;
#X obj 306 126 delay 500;
#X text 321 57 these delays are an;
#X text 321 71 attempt to smooth out pops;
#X obj 181 60 s vol-out;
#X obj 273 38 r onoff-out;
#X obj 127 175 amplitude~;
#X obj 240 107 bng 15 250 50 0 empty empty empty 17 7 0 10 -262144
-1 -1;
#X obj 325 100 t b f;
#X connect 0 0 1 0;
#X connect 1 0 2 0;
#X connect 3 0 8 0;
#X connect 4 0 14 0;
#X connect 4 0 16 0;
#X connect 8 0 16 0;
#X connect 8 0 17 0;
#X connect 8 1 18 0;
#X connect 9 0 5 0;
#X connect 10 0 9 0;
#X connect 11 0 16 0;
#X connect 15 0 3 0;
#X connect 16 0 1 1;
#X connect 17 0 10 0;
#X connect 18 0 11 0;
#X connect 18 1 5 0;
#X restore 28 -116 pd amplitude;
#X obj 28 -186 line~ 440 50;
#X text 110 -187 smooth transitions;
#X text 27 -238 ., f 10;
#X obj 72 -90 env~;
#X obj 72 -68 - 100;
#X obj 72 -46 s vu;
#N canvas 2600 61 450 300 mirror~ 1;
#X obj 46 -16 adc~;
#X obj 46 71 writesf~ 2;
#X obj 22 229 readsf~ 2;
#X obj 22 252 outlet~;
#X obj 72 252 outlet~;
#X msg 35 204 start;
#X msg 77 204 stop;
#X obj 35 184 delay 500;
#X msg 110 38 start;
#X msg 156 39 stop;
#X obj 35 166 bng 15 250 50 0 empty empty empty 17 7 0 10 -262144 -1
-1;
#X obj 110 17 delay 500;
#X obj 110 -1 bng 15 250 50 0 empty empty empty 17 7 0 10 -262144 -1
-1;
#X obj 338 -5 r rec;
#X obj 338 17 moses 1;
#X obj 334 89 r play;
#X obj 334 111 moses 1;
#X msg 35 146 open pitchgen-sample.wav;
#X obj 135 251 s play-out;
#X msg 135 230 0;
#X obj 334 143 bng 15 250 50 0 empty empty empty 17 7 0 10 -262144
-1 -1;
#X obj 334 163 delay 100;
#X msg 110 -24 open -bytes 4 pitchgen-sample.wav;
#X connect 0 0 1 0;
#X connect 0 1 1 1;
#X connect 2 0 3 0;
#X connect 2 1 4 0;
#X connect 2 2 19 0;
#X connect 5 0 2 0;
#X connect 6 0 2 0;
#X connect 7 0 5 0;
#X connect 8 0 1 0;
#X connect 9 0 1 0;
#X connect 10 0 7 0;
#X connect 11 0 8 0;
#X connect 12 0 11 0;
#X connect 13 0 14 0;
#X connect 14 0 9 0;
#X connect 14 1 22 0;
#X connect 15 0 16 0;
#X connect 16 0 20 0;
#X connect 16 1 17 0;
#X connect 17 0 2 0;
#X connect 17 0 10 0;
#X connect 19 0 18 0;
#X connect 20 0 21 0;
#X connect 21 0 6 0;
#X connect 22 0 1 0;
#X connect 22 0 12 0;
#X restore 211 -155 pd mirror~;
#N canvas 696 204 450 300 mirror-amplitude 0;
#X obj 42 25 inlet~;
#X obj 42 157 *~;
#X obj 42 179 outlet~;
#X obj 120 22 inlet~;
#X obj 120 154 *~;
#X obj 120 176 outlet~;
#X obj 202 126 amplitude~;
#X obj 202 22 r mirror-vol;
#X obj 286 22 r play;
#X obj 286 44 moses 1;
#X floatatom 325 92 5 0 0 0 - - -, f 5;
#X obj 325 68 bng 15 250 50 0 empty empty empty 17 7 0 10 -262144 -1
-1;
#X connect 0 0 1 0;
#X connect 1 0 2 0;
#X connect 3 0 4 0;
#X connect 4 0 5 0;
#X connect 6 0 1 1;
#X connect 6 0 4 1;
#X connect 7 0 6 0;
#X connect 7 0 10 0;
#X connect 8 0 9 0;
#X connect 9 0 6 0;
#X connect 9 1 11 0;
#X connect 10 0 6 0;
#X connect 11 0 10 0;
#X restore 211 -133 pd mirror-amplitude;
#X obj 211 -55 dac~;
#X obj 375 -176 vsl 15 128 0 1 0 0 mirror-vol mirror-vol mirror\ volume
0 -9 0 10 -262144 -1 -1 10164 1;
#X connect 1 0 4 0;
#X connect 2 0 3 0;
#X connect 3 0 0 0;
#X connect 3 0 7 0;
#X connect 3 0 0 1;
#X connect 4 0 2 0;
#X connect 7 0 8 0;
#X connect 8 0 9 0;
#X connect 10 0 11 0;
#X connect 10 1 11 1;
#X connect 11 0 12 0;
#X connect 11 0 7 0;
#X connect 11 1 12 1;
#X restore 84 129 pd audio;
#N canvas 722 23 718 417 networking 0;
#N canvas 1080 22 720 428 osc-in 0;
#X obj 142 99 oscparse;
#X obj 173 136 outlet;
#X msg 227 31 listen 0;
#X obj 142 77 netreceive -u -b;
#X msg 140 31 listen 5050;
#X obj 92 136 print osc;
#X obj 227 8 r net-off;
#X obj 74 10 r my-port;
#X msg 74 32 listen \$1;
#X connect 0 0 5 0;
#X connect 0 0 1 0;
#X connect 2 0 3 0;
#X connect 3 0 0 0;
#X connect 4 0 3 0;
#X connect 6 0 2 0;
#X connect 7 0 8 0;
#X connect 8 0 3 0;
#X restore 433 23 pd osc-in;
#N canvas 525 222 718 394 route-osc 0;
#X obj 39 18 inlet;
#X obj 39 105 s onoff;
#X obj 88 132 s notename;
#X obj 39 41 list trim;
#X obj 122 370 outlet;
#X obj 122 294 / 127;
#X obj 122 317 oscformat fader5;
#X obj 122 272 r notename-out;
#X obj 232 272 r vol-out;
#X obj 241 108 s dev;
#X obj 128 107 s octave;
#X obj 10 317 oscformat dsp;
#X obj 232 317 oscformat volume;
#X obj 190 107 s vol;
#X obj 342 272 r dev-out;
#X obj 342 317 oscformat deviation;
#X obj 10 272 r onoff-out;
#X obj 291 139 s partials;
#X msg 471 52 1;
#X obj 471 76 zexy/list2symbol;
#X obj 471 317 oscformat partials;
#X msg 471 290 1 1;
#X obj 471 245 bng 15 250 50 0 empty empty empty 17 7 0 10 -262144
-1 -1;
#X obj 471 101 list append 1;
#X obj 471 29 r net-on;
#X obj 471 265 delay 20;
#X text 468 6 start with only fundamental;
#X obj 39 65 route dsp notename octave volume deviation partials record
play mirror-volume;
#X obj 282 108 s rec;
#X obj 320 107 s play;
#X obj 364 107 s mirror-vol;
#X obj 593 278 r play-out;
#X obj 593 317 oscformat play;
#X connect 0 0 3 0;
#X connect 3 0 27 0;
#X connect 5 0 6 0;
#X connect 6 0 4 0;
#X connect 7 0 5 0;
#X connect 8 0 12 0;
#X connect 11 0 4 0;
#X connect 12 0 4 0;
#X connect 14 0 15 0;
#X connect 15 0 4 0;
#X connect 16 0 11 0;
#X connect 18 0 19 0;
#X connect 19 0 23 0;
#X connect 20 0 4 0;
#X connect 21 0 20 0;
#X connect 22 0 25 0;
#X connect 23 0 17 0;
#X connect 23 0 22 0;
#X connect 24 0 18 0;
#X connect 25 0 21 0;
#X connect 27 0 1 0;
#X connect 27 1 2 0;
#X connect 27 2 10 0;
#X connect 27 3 13 0;
#X connect 27 4 9 0;
#X connect 27 5 17 0;
#X connect 27 6 28 0;
#X connect 27 7 29 0;
#X connect 27 8 30 0;
#X connect 31 0 32 0;
#X connect 32 0 4 0;
#X restore 433 45 pd route-osc;
#N canvas 720 450 360 405 osc-out 0;
#X obj 29 93 inlet;
#X floatatom 92 233 5 0 0 0 - - -, f 5;
#X msg 161 135 connect 192.168.0.19 9000;
#X msg 165 182 disconnect;
#X obj 29 119 list prepend send;
#X obj 29 141 list trim;
#X obj 13 213 oscparse;
#X obj 13 260 print osc-send;
#X obj 165 159 r net-off;
#X obj 136 18 r remote-ip;
#X obj 220 18 r remote-port;
#X msg 100 52 connect;
#X obj 161 76 pack s s f;
#X obj 161 98 list trim;
#X obj 13 236 list trim;
#X obj 92 211 netsend -u -b;
#X connect 0 0 4 0;
#X connect 0 0 6 0;
#X connect 2 0 15 0;
#X connect 3 0 15 0;
#X connect 4 0 5 0;
#X connect 5 0 15 0;
#X connect 6 0 14 0;
#X connect 8 0 3 0;
#X connect 9 0 11 0;
#X connect 9 0 12 1;
#X connect 10 0 12 2;
#X connect 11 0 12 0;
#X connect 12 0 13 0;
#X connect 13 0 15 0;
#X connect 14 0 7 0;
#X connect 15 0 1 0;
#X restore 433 67 pd osc-out;
#X text 9 71 my IP:;
#X text 9 96 my port:;
#X text 173 71 (just for reference);
#X obj 69 49 bng 15 250 50 0 empty empty empty 17 7 0 10 -262144 -1
-1;
#X obj 69 25 r net-on;
#X obj 17 283 moses 1;
#X obj 78 305 s net-on;
#X obj 17 305 s net-off;
#X msg 89 133 \; remote-port 9000;
#X msg 92 91 \; my-port float 5050;
#X obj 17 261 r net-toggle;
#X text 15 7 CONNECTION INFO GOES HERE;
#X text 12 242 only send bangs for net state instead of values;
#X text 374 6 THE GUTS ARE HERE;
#X text 500 23 listening for OSC;
#X text 318 41 interpreting OSC;
#X text 505 69 sending OSC;
#X text 318 55 input and output;
#X msg 92 71 192.168.0.16;
#X text 8 140 remote port:;
#X text 8 178 remote IP:;
#X msg 84 172 \; remote-ip symbol 192.168.0.15;
#X connect 0 0 1 0;
#X connect 1 0 2 0;
#X connect 6 0 21 0;
#X connect 6 0 11 0;
#X connect 6 0 24 0;
#X connect 6 0 12 0;
#X connect 7 0 6 0;
#X connect 8 0 10 0;
#X connect 8 1 9 0;
#X connect 13 0 8 0;
#X restore 84 174 pd networking;
#N canvas 2489 520 718 440 display 0;
#X obj 47 86 notoname2;
#X obj 203 57 r dev;
#X floatatom 203 128 5 0 0 1 c - -, f 5;
#X obj 203 104 int;
#X obj 203 81 * 100;
#X msg 203 209 \; c2 label \$1;
#X obj 47 59 r midinum;
#X msg 47 114 \; c1 label \$1;
#X text 45 34 note name canvas;
#X text 202 36 cent dev canvas;
#X obj 203 151 moses 0;
#X msg 203 178 symbol \$1c;
#X msg 274 178 symbol +\$1c;
#X connect 0 0 7 0;
#X connect 1 0 4 0;
#X connect 2 0 10 0;
#X connect 3 0 2 0;
#X connect 4 0 3 0;
#X connect 6 0 0 0;
#X connect 10 0 11 0;
#X connect 10 1 12 0;
#X connect 11 0 5 0;
#X connect 12 0 5 0;
#X restore 84 151 pd display;
#X text 177 175 <= set IP and port;
#X obj 195 74 hsl 300 30 -1 1 0 0 dev dev DEVIATION 3 -8 0 10 -262144
-1 -1 14950 1;
#X obj 512 126 vu 15 120 vu RMS -1 -8 0 10 -66577 -1 1 0;
#X coords 0 0 1 1 85 60 0;
