#N canvas 0 0 720 855 10;
#N canvas 720 0 360 428 youarehearing 1;
#X obj 19 324 notoname2;
#X obj 37 196 mtof;
#X obj 37 298 dac~;
#X obj 412 61 tgl 15 0 empty empty empty 17 7 0 10 -262144 -1 -1 0
1;
#X obj 246 141 line~;
#X obj 37 276 *~;
#X obj 37 254 osc~ 440;
#X obj 246 119 pack 0 50;
#X obj 37 222 line~ 440 50;
#X obj 18 40 r notename;
#X obj 19 351 outlet;
#X obj 412 39 r onoff;
#X obj 246 51 r vol;
#X floatatom 246 91 5 0 1 0 - - -, f 5;
#X msg 416 245 \; pd dsp \$1;
#X text 16 22 PITCH;
#X text 230 21 VOLUME;
#X text 399 15 DSP TOGGLE;
#X obj 96 40 r octave;
#X obj 32 129 + 24;
#X obj 96 64 int;
#X obj 96 86 * 12;
#X obj 96 106 t b f;
#X obj 32 73 int;
#X obj 32 157 + 0;
#X text 5 130 8ve;
#X text 10 157 c;
#X obj 158 40 r dev;
#X obj 157 104 t b f;
#X floatatom 157 74 5 0 0 0 - - -, f 5;
#X obj 412 88 moses 1;
#X msg 378 138 0;
#X obj 464 116 t b f;
#X obj 378 116 delay 500;
#X obj 445 142 delay 500;
#X text 507 91 these delays are an;
#X text 507 105 attempt to smooth out pops;
#X obj 205 226 r dev;
#X floatatom 205 297 5 0 0 1 c - -, f 5;
#X text 204 205 logic for cent dev display;
#X obj 205 273 int;
#X obj 205 250 * 100;
#X msg 205 365 \; c2 label \$1;
#X obj 205 343 l2s;
#X obj 206 318 list append c;
#X connect 0 0 10 0;
#X connect 1 0 8 0;
#X connect 3 0 30 0;
#X connect 4 0 5 1;
#X connect 5 0 2 0;
#X connect 5 0 2 1;
#X connect 6 0 5 0;
#X connect 7 0 4 0;
#X connect 8 0 6 0;
#X connect 9 0 23 0;
#X connect 11 0 3 0;
#X connect 12 0 13 0;
#X connect 13 0 7 0;
#X connect 18 0 20 0;
#X connect 19 0 24 0;
#X connect 19 0 0 0;
#X connect 20 0 21 0;
#X connect 21 0 22 0;
#X connect 22 0 19 0;
#X connect 22 1 19 1;
#X connect 23 0 19 0;
#X connect 24 0 1 0;
#X connect 27 0 29 0;
#X connect 28 0 24 0;
#X connect 28 1 24 1;
#X connect 29 0 28 0;
#X connect 30 0 33 0;
#X connect 30 0 7 0;
#X connect 30 1 32 0;
#X connect 31 0 14 0;
#X connect 32 0 34 0;
#X connect 32 1 14 0;
#X connect 33 0 31 0;
#X connect 34 0 13 0;
#X connect 37 0 41 0;
#X connect 38 0 44 0;
#X connect 40 0 38 0;
#X connect 41 0 40 0;
#X connect 43 0 42 0;
#X connect 44 0 43 0;
#X restore 94 116 pd youarehearing;
#X symbolatom 94 144 10 0 0 0 - - -, f 10;
#X obj 92 44 tgl 50 0 onoff-out onoff SWITCH 7 7 0 10 -262144 -1 -1
0 1;
#X obj 195 54 hsl 300 30 10 127 0 0 notename notename NOTE\ NAME 3
-8 0 10 -262144 -1 -1 0 1;
#X obj 447 114 vsl 50 128 0 1 0 0 vol vol VOLUME 0 -9 0 10 -262144
-1 -1 1881 1;
#X msg 94 170 \; c1 label \$1;
#X obj 57 246 cnv 15 263 282 empty c1 E4 20 40 0 200 -262144 -66577
0;
#N canvas 720 450 360 428 osc-business 1;
#N canvas 1080 0 720 428 osc-in 0;
#X obj 142 99 oscparse;
#X obj 173 136 outlet;
#X msg 227 31 listen 0;
#X obj 142 77 netreceive -u -b;
#X msg 140 31 listen 5050;
#X obj 92 136 print osc;
#X obj 227 8 r net-off;
#X obj 74 10 r my-port;
#X msg 74 32 listen \$1;
#X connect 0 0 5 0;
#X connect 0 0 1 0;
#X connect 2 0 3 0;
#X connect 3 0 0 0;
#X connect 4 0 3 0;
#X connect 6 0 2 0;
#X connect 7 0 8 0;
#X connect 8 0 3 0;
#X restore 433 23 pd osc-in;
#N canvas 0 0 360 428 route-osc 1;
#X obj 39 18 inlet;
#X obj 39 95 s onoff;
#X obj 88 122 s notename;
#X obj 39 41 list trim;
#X obj 188 96 s vol;
#X obj 122 370 outlet;
#X obj 122 294 / 127;
#X obj 232 316 oscformat fader1;
#X obj 122 316 oscformat fader5;
#X obj 10 272 r onoff-out;
#X obj 122 272 r notename-out;
#X obj 232 272 r vol-out;
#X obj 39 65 route dsp notename octave volume deviation;
#X obj 10 317 oscformat dsp;
#X obj 238 97 s dev;
#X obj 128 97 s octave;
#X connect 0 0 3 0;
#X connect 3 0 12 0;
#X connect 6 0 8 0;
#X connect 7 0 5 0;
#X connect 8 0 5 0;
#X connect 9 0 13 0;
#X connect 10 0 6 0;
#X connect 11 0 7 0;
#X connect 12 0 1 0;
#X connect 12 1 2 0;
#X connect 12 2 15 0;
#X connect 12 3 4 0;
#X connect 12 4 14 0;
#X connect 13 0 5 0;
#X restore 433 45 pd route-osc;
#N canvas 720 450 360 405 osc-out 0;
#X obj 29 93 inlet;
#X floatatom 92 233 5 0 0 0 - - -, f 5;
#X msg 161 135 connect 192.168.0.19 9000;
#X msg 165 182 disconnect;
#X obj 92 211 netsend 1;
#X obj 29 119 list prepend send;
#X obj 29 141 list trim;
#X obj 13 213 oscparse;
#X obj 13 260 print osc-send;
#X obj 165 159 r net-off;
#X obj 136 18 r remote-ip;
#X obj 220 18 r remote-port;
#X msg 100 52 connect;
#X obj 161 76 pack s s f;
#X obj 161 98 list trim;
#X obj 13 236 list trim;
#X connect 0 0 5 0;
#X connect 0 0 7 0;
#X connect 2 0 4 0;
#X connect 3 0 4 0;
#X connect 4 0 1 0;
#X connect 5 0 6 0;
#X connect 6 0 4 0;
#X connect 7 0 15 0;
#X connect 9 0 3 0;
#X connect 10 0 12 0;
#X connect 10 0 13 1;
#X connect 11 0 13 2;
#X connect 12 0 13 0;
#X connect 13 0 14 0;
#X connect 14 0 4 0;
#X connect 15 0 8 0;
#X restore 433 67 pd osc-out;
#X text 9 71 my IP:;
#X text 9 96 my port:;
#X text 8 140 remote IP:;
#X text 8 178 remote port:;
#X msg 92 71 192.168.0.20;
#X text 173 71 (just for reference);
#X obj 69 49 bng 15 250 50 0 empty empty empty 17 7 0 10 -262144 -1
-1;
#X obj 69 25 r net-on;
#X obj 17 283 moses 1;
#X obj 78 305 s net-on;
#X obj 17 305 s net-off;
#X msg 89 133 \; remote-port 9000;
#X msg 92 91 \; my-port float 5050;
#X obj 17 261 r net-toggle;
#X text 15 7 CONNECTION INFO GOES HERE;
#X text 12 242 only send bangs for net state instead of values;
#X text 374 6 THE GUTS ARE HERE;
#X text 500 23 listening for OSC;
#X text 318 41 interpreting OSC;
#X text 505 69 sending OSC;
#X text 318 55 input and output;
#X msg 84 172 \; remote-ip symbol 192.168.0.15;
#X connect 0 0 1 0;
#X connect 1 0 2 0;
#X connect 9 0 7 0;
#X connect 9 0 14 0;
#X connect 9 0 24 0;
#X connect 9 0 15 0;
#X connect 10 0 9 0;
#X connect 11 0 13 0;
#X connect 11 1 12 0;
#X connect 16 0 11 0;
#X restore 267 131 pd osc-business;
#X text 263 108 set IP and port in here;
#X obj 327 176 tgl 50 0 net-toggle net-toggle NETWORKING 7 7 0 10 -262144
-1 -1 1 1;
#X obj 59 417 cnv 15 263 282 empty c2 0\ c 20 40 0 200 -262144 -66577
0;
#X connect 0 0 1 0;
#X connect 1 0 5 0;
#X coords 0 0 1 1 85 60 0;
